<mxfile host="65bd71144e">
    <diagram id="MiPGT2fHD0tA7wpAU4Cw" name="ページ1">
        <mxGraphModel dx="1180" dy="636" grid="1" gridSize="10" guides="1" tooltips="1" connect="1" arrows="1" fold="1" page="1" pageScale="1" pageWidth="1920" pageHeight="1200" background="light-dark(#FFFFFF,transparent)" math="0" shadow="0">
            <root>
                <mxCell id="0"/>
                <mxCell id="1" parent="0"/>
                <mxCell id="4" value="&lt;font style=&quot;&quot;&gt;リバーシアプリケーション&lt;/font&gt;" style="rounded=0;whiteSpace=wrap;html=1;strokeColor=default;fillColor=light-dark(#FFFFFF,transparent);fontColor=#000000;verticalAlign=top;" parent="1" vertex="1">
                    <mxGeometry x="800" y="400" width="470" height="550" as="geometry"/>
                </mxCell>
                <mxCell id="5" value="&lt;font&gt;プレイヤー&lt;/font&gt;" style="shape=umlActor;verticalLabelPosition=bottom;verticalAlign=top;html=1;rounded=0;strokeColor=default;align=center;fontFamily=Helvetica;fontSize=12;fontColor=#000000;fillColor=default;" parent="1" vertex="1">
                    <mxGeometry x="610" y="590" width="40" height="80" as="geometry"/>
                </mxCell>
                <mxCell id="7" style="edgeStyle=none;html=1;endArrow=none;endFill=0;strokeColor=default;exitX=0;exitY=0.5;exitDx=0;exitDy=0;fontColor=#000000;" parent="1" source="6" target="5" edge="1">
                    <mxGeometry relative="1" as="geometry">
                        <mxPoint x="720" y="560" as="targetPoint"/>
                    </mxGeometry>
                </mxCell>
                <mxCell id="6" value="&lt;font&gt;対戦する&lt;/font&gt;" style="ellipse;whiteSpace=wrap;html=1;rounded=0;strokeColor=default;align=center;verticalAlign=middle;fontFamily=Helvetica;fontSize=12;fontColor=#000000;fillColor=light-dark(#FFFFFF,transparent);" parent="1" vertex="1">
                    <mxGeometry x="820" y="570" width="140" height="70" as="geometry"/>
                </mxCell>
                <mxCell id="9" style="edgeStyle=none;html=1;entryX=1;entryY=0;entryDx=0;entryDy=0;fontFamily=Helvetica;fontSize=12;fontColor=#000000;endArrow=none;endFill=0;dashed=1;" edge="1" parent="1" source="8" target="6">
                    <mxGeometry relative="1" as="geometry"/>
                </mxCell>
                <mxCell id="8" value="&lt;ul&gt;&lt;li&gt;&lt;span style=&quot;background-color: transparent;&quot;&gt;対戦を開始する&lt;/span&gt;&lt;/li&gt;&lt;li&gt;&lt;span style=&quot;background-color: transparent;&quot;&gt;盤面を見る&lt;/span&gt;&lt;/li&gt;&lt;li&gt;&lt;span style=&quot;background-color: transparent;&quot;&gt;石を打つ&lt;/span&gt;&lt;/li&gt;&lt;li&gt;&lt;span style=&quot;background-color: transparent;&quot;&gt;勝敗を確認する&lt;/span&gt;&lt;/li&gt;&lt;/ul&gt;" style="shape=note;whiteSpace=wrap;html=1;backgroundOutline=1;darkOpacity=0.05;align=left;fillColor=#fad7ac;strokeColor=#b46504;fillStyle=solid;fontColor=#000000;" parent="1" vertex="1">
                    <mxGeometry x="950" y="440" width="160" height="100" as="geometry"/>
                </mxCell>
                <mxCell id="10" value="&lt;font&gt;会員登録&lt;/font&gt;&lt;div&gt;&lt;font&gt;ログイン&lt;/font&gt;&lt;/div&gt;" style="ellipse;whiteSpace=wrap;html=1;rounded=0;strokeColor=default;align=center;verticalAlign=middle;fontFamily=Helvetica;fontSize=12;fontColor=#000000;fillColor=light-dark(#FFFFFF,transparent);" vertex="1" parent="1">
                    <mxGeometry x="800" y="450" width="140" height="70" as="geometry"/>
                </mxCell>
                <mxCell id="11" value="&lt;font&gt;自分の&lt;/font&gt;&lt;div&gt;&lt;font&gt;過去の対戦結果を&lt;/font&gt;&lt;/div&gt;&lt;div&gt;&lt;font&gt;確認する&lt;/font&gt;&lt;/div&gt;" style="ellipse;whiteSpace=wrap;html=1;rounded=0;strokeColor=default;align=center;verticalAlign=middle;fontFamily=Helvetica;fontSize=12;fontColor=#000000;fillColor=light-dark(#FFFFFF,transparent);" vertex="1" parent="1">
                    <mxGeometry x="820" y="680" width="140" height="70" as="geometry"/>
                </mxCell>
                <mxCell id="14" style="edgeStyle=none;html=1;fontFamily=Helvetica;fontSize=12;fontColor=light-dark(#000000,#000000);endArrow=none;endFill=0;" edge="1" parent="1" source="11" target="5">
                    <mxGeometry relative="1" as="geometry"/>
                </mxCell>
                <mxCell id="15" style="edgeStyle=none;html=1;fontFamily=Helvetica;fontSize=12;fontColor=light-dark(#000000,#000000);endArrow=none;endFill=0;exitX=0;exitY=0.5;exitDx=0;exitDy=0;" edge="1" parent="1" source="10" target="5">
                    <mxGeometry relative="1" as="geometry"/>
                </mxCell>
                <mxCell id="16" value="&lt;font&gt;一人で&lt;/font&gt;&lt;div&gt;&lt;font&gt;黒白交互に打つ&lt;/font&gt;&lt;/div&gt;" style="ellipse;whiteSpace=wrap;html=1;rounded=0;strokeColor=default;align=center;verticalAlign=middle;fontFamily=Helvetica;fontSize=12;fontColor=#000000;fillColor=light-dark(#FFFFFF,transparent);" vertex="1" parent="1">
                    <mxGeometry x="1090" y="570" width="140" height="70" as="geometry"/>
                </mxCell>
                <mxCell id="17" value="&lt;font&gt;CPと対戦する&lt;/font&gt;" style="ellipse;whiteSpace=wrap;html=1;rounded=0;strokeColor=default;align=center;verticalAlign=middle;fontFamily=Helvetica;fontSize=12;fontColor=#000000;fillColor=light-dark(#FFFFFF,transparent);" vertex="1" parent="1">
                    <mxGeometry x="1120" y="790" width="140" height="70" as="geometry"/>
                </mxCell>
                <mxCell id="18" value="&lt;font&gt;他のプレイヤーと&lt;/font&gt;&lt;div&gt;&lt;font&gt;対戦する&lt;/font&gt;&lt;/div&gt;" style="ellipse;whiteSpace=wrap;html=1;rounded=0;strokeColor=default;align=center;verticalAlign=middle;fontFamily=Helvetica;fontSize=12;fontColor=#000000;fillColor=light-dark(#FFFFFF,transparent);" vertex="1" parent="1">
                    <mxGeometry x="1120" y="870" width="140" height="70" as="geometry"/>
                </mxCell>
                <mxCell id="19" value="Extends" style="endArrow=block;endSize=16;endFill=0;html=1;fontFamily=Helvetica;fontSize=12;fontColor=#000000;exitX=0;exitY=0.5;exitDx=0;exitDy=0;" edge="1" parent="1" source="16" target="6">
                    <mxGeometry x="-0.0022" width="160" relative="1" as="geometry">
                        <mxPoint x="980" y="610" as="sourcePoint"/>
                        <mxPoint x="1140" y="610" as="targetPoint"/>
                        <mxPoint as="offset"/>
                    </mxGeometry>
                </mxCell>
                <mxCell id="20" value="Extends" style="endArrow=block;endSize=16;endFill=0;html=1;fontFamily=Helvetica;fontSize=12;fontColor=#000000;exitX=0;exitY=0.5;exitDx=0;exitDy=0;" edge="1" parent="1" source="17" target="6">
                    <mxGeometry x="-0.0022" width="160" relative="1" as="geometry">
                        <mxPoint x="1090" y="684.72" as="sourcePoint"/>
                        <mxPoint x="960" y="684.72" as="targetPoint"/>
                        <mxPoint as="offset"/>
                    </mxGeometry>
                </mxCell>
                <mxCell id="21" value="Extends" style="endArrow=block;endSize=16;endFill=0;html=1;fontFamily=Helvetica;fontSize=12;fontColor=#000000;exitX=0;exitY=0.5;exitDx=0;exitDy=0;entryX=0.707;entryY=0.986;entryDx=0;entryDy=0;entryPerimeter=0;" edge="1" parent="1" source="18" target="6">
                    <mxGeometry x="-0.0022" width="160" relative="1" as="geometry">
                        <mxPoint x="1095" y="748" as="sourcePoint"/>
                        <mxPoint x="950" y="690" as="targetPoint"/>
                        <mxPoint as="offset"/>
                    </mxGeometry>
                </mxCell>
                <mxCell id="23" style="edgeStyle=none;html=1;fontFamily=Helvetica;fontSize=12;fontColor=light-dark(#000000,#000000);endArrow=none;endFill=0;" edge="1" parent="1" source="22" target="5">
                    <mxGeometry relative="1" as="geometry"/>
                </mxCell>
                <mxCell id="22" value="&lt;font&gt;プレイヤーの&lt;/font&gt;&lt;div&gt;&lt;font&gt;ランキングを&lt;/font&gt;&lt;/div&gt;&lt;div&gt;&lt;font&gt;確認する&lt;/font&gt;&lt;/div&gt;" style="ellipse;whiteSpace=wrap;html=1;rounded=0;strokeColor=default;align=center;verticalAlign=middle;fontFamily=Helvetica;fontSize=12;fontColor=#000000;fillColor=light-dark(#FFFFFF,transparent);" vertex="1" parent="1">
                    <mxGeometry x="820" y="810" width="140" height="70" as="geometry"/>
                </mxCell>
                <mxCell id="24" value="" style="rounded=0;whiteSpace=wrap;html=1;strokeColor=#b85450;align=center;verticalAlign=top;fontFamily=Helvetica;fontSize=12;fillColor=light-dark(#F8CECC,transparent);strokeWidth=6;" vertex="1" parent="1">
                    <mxGeometry x="810" y="560" width="450" height="210" as="geometry"/>
                </mxCell>
            </root>
        </mxGraphModel>
    </diagram>
</mxfile>